<svg xmlns="http://www.w3.org/2000/svg" height="40" viewBox="0 96 960 960" width="40"><path d="M109.487 956q21.923-71.897 31.039-148.013 9.115-76.115 11.269-157.936-39.975-11.102-65.885-47.872Q60 565.41 60 510.974v-40q110.385-36.769 224.961-111.256Q399.538 285.231 480 200.615q80.462 84.616 195.039 159.103Q789.615 434.205 900 470.974v40q0 54.436-25.577 91.205-25.577 36.77-65.551 47.872 1.487 80.693 10.679 156.962Q828.744 883.282 851.18 956H109.487Zm26.103-478.872h688.82q-92.102-38.82-177.73-96.372Q561.051 323.205 480 248.205q-79.41 74.026-165.705 131.987Q228 438.154 135.59 477.128Zm445.384 141.795q38.641 0 61.27-32.705 22.628-32.705 22.628-75.244H496.923q0 42.539 22.705 75.244t61.346 32.705Zm-201.795 0q39.154 0 61.526-32.705t22.372-75.244H295.641q0 42.539 22.449 75.244 22.448 32.705 61.089 32.705Zm-201.282 0q38.641 0 61.27-32.705 22.628-32.705 22.628-75.244H93.846q0 42.539 22.705 75.244t61.346 32.705Zm-24.359 303.231h158.949q10.385-65.282 15.923-132.513 5.539-67.23 8.077-144.769-16.231-6.795-32.102-21.577-15.872-14.782-25.206-35.295-14.538 28.333-38.782 45.269-24.243 16.936-54.756 19.116-2.154 71.102-8.821 137.91-6.666 66.808-23.282 131.859Zm193.18 0h267.231q-10.821-64.026-16.167-130.179-5.346-66.154-7.731-140.103-36.307 1.846-66.807-16.705-30.5-18.552-44.218-52.423-13.718 33.871-43.398 52.423-29.679 18.551-65.525 16.705-1.872 68.769-7.141 135.897-5.27 67.129-16.244 134.385Zm301.308 0h159.102q-17.436-66.18-24.025-133.398-6.59-67.217-8.077-136.371-30.359-2.18-54.846-19.039-24.488-16.859-37.924-46.884-9.076 22.256-25.384 36.935-16.308 14.68-33.205 21.475 1.718 67.487 7.474 136.025 5.756 68.539 16.885 141.257Zm134.23-303.231q39.154 0 61.526-32.705t22.372-75.244H698.718q0 42.539 22.449 75.244 22.448 32.705 61.089 32.705Z"/></svg>