<svg xmlns="http://www.w3.org/2000/svg" height="40" viewBox="0 96 960 960" width="40"><path d="M180 916V236h33.846v73.846h132.308V236h267.692v73.846h132.308V236H780v680h-33.846v-73.846H613.846V916H346.154v-73.846H213.846V916H180Zm33.846-107.692h132.308V676H213.846v132.308Zm0-166.154h132.308V509.846H213.846v132.308Zm0-166.154h132.308V343.692H213.846V476Zm400 332.308h132.308V676H613.846v132.308Zm0-166.154h132.308V509.846H613.846v132.308Zm0-166.154h132.308V343.692H613.846V476ZM380 882.154h200V269.846H380v612.308Zm0-612.308h200-200Z"/></svg>