<svg xmlns="http://www.w3.org/2000/svg" height="40" viewBox="0 96 960 960" width="40"><path d="M744.052 383.282q11.912 0 20.982-9.09 9.069-9.09 9.069-20.448 0-12.426-9.069-21.239-9.07-8.813-20.982-8.813-11.913 0-20.982 8.928-9.07 8.929-9.07 21.124 0 11.358 9.07 20.448 9.069 9.09 20.982 9.09Zm-163.943 0q11.958 0 21.027-9.09t9.069-20.448q0-12.426-9.069-21.239t-21.027-8.813q-11.958 0-20.726 8.928-8.767 8.929-8.767 21.124 0 11.358 8.767 20.448 8.768 9.09 20.726 9.09Zm-11.032 139.077h185.744q-3.846-25.718-30.995-42.192-27.148-16.475-61.859-16.475-36.249 0-63.416 16.475-27.166 16.474-29.474 42.192ZM298.488 935.846q-82.873 0-140.681-58.333Q100 819.18 100 737.282V501.333h396.103v235.949q0 81.898-57.371 140.231-57.37 58.333-140.244 58.333ZM298.203 902q67.797 0 115.925-48.615 48.128-48.616 48.128-115.852V535.179h-328.41v202.354q0 67.236 48.28 115.852Q230.405 902 298.203 902Zm363.746-252q-29.678 0-59.827-8.397-30.148-8.398-49.968-22.988l1.538-39.589q22.665 16.179 49.612 26.653 26.947 10.475 58.645 10.475 67.735 0 115.97-47.064t48.235-114.218V249.846H496.769v195.231h-33.846V216H860v238.872q0 81.231-57.765 138.179Q744.47 650 661.949 650Zm-445.135 16.359q11.958 0 20.726-8.781 8.767-8.781 8.767-20.757 0-12.195-8.767-21.123-8.768-8.929-20.726-8.929-11.958 0-21.027 8.872-9.069 8.871-9.069 20.982 0 12.11 9.069 20.923 9.069 8.813 21.027 8.813Zm163.808 0q12.111 0 20.924-8.781 8.813-8.781 8.813-20.757 0-12.195-8.781-21.123-8.781-8.929-20.758-8.929-12.194 0-21.123 8.872-8.928 8.871-8.928 20.982 0 12.11 8.871 20.923 8.872 8.813 20.982 8.813Zm-81.615 142q36.249 0 63.416-16.474 27.167-16.475 29.474-42.192H206.154q2.307 25.717 29.455 42.192 27.149 16.474 63.398 16.474Zm-.289-91.231Zm363.077-282.923Z"/></svg>