<svg xmlns="http://www.w3.org/2000/svg" height="40" viewBox="0 96 960 960" width="40"><path d="m178.461 296 58.051 117.744H359.59L301.538 296h82.923l58.052 117.744H565.59L507.538 296h82.411l58.564 117.744H771.59L713.026 296h68.513q24.577 0 41.519 16.942Q840 329.884 840 354.461v443.078q0 24.577-16.942 41.519Q806.116 856 781.539 856H178.461q-24.577 0-41.519-16.942Q120 822.116 120 797.539V354.461q0-24.577 16.942-41.519Q153.884 296 178.461 296Zm-24.615 151.59v349.949q0 10.769 6.923 17.692t17.692 6.923h603.078q10.769 0 17.692-6.923t6.923-17.692V447.59H153.846Zm0 0v374.564V447.59Z"/></svg>