<svg xmlns="http://www.w3.org/2000/svg" height="40" viewBox="0 96 960 960" width="40"><path d="M189.949 370V239.641l130.872 65.436L189.949 370Zm489.23 0V239.641l130.872 65.436L679.179 370ZM451.18 337.282V206.923l130.358 65.436-130.358 64.923Zm-34.257 610.257q-69.077-2.923-124.731-11.885-55.654-8.962-94.872-22.269-39.218-13.308-60.577-30-21.359-16.693-21.359-35.077V519.077q0-21.154 27.27-39.193 27.269-18.038 75.884-31.461Q267.154 435 334 427.038q66.846-7.961 146-7.961t146 7.961q66.846 7.962 115.462 21.385 48.615 13.423 75.884 31.461 27.27 18.039 27.27 39.193v329.231q0 18.384-21.359 35.077-21.359 16.692-60.577 30-39.218 13.307-94.872 22.269-55.654 8.962-124.731 11.885V785.231H416.923v162.308ZM480 585.231q99.308 0 187.5-16.705 88.192-16.706 140.193-46.68-20.206-27.154-105.334-48.039Q617.231 452.923 480 452.923t-222.359 20.884q-85.128 20.885-105.334 48.039 52.001 29.974 131.347 46.68Q363 585.231 480 585.231Zm-96.923 325.692V751.385h193.846v159.538q94.615-6.256 154.333-24.474t79.513-38.167V557.641q-66.589 31.59-149.948 46.513Q577.462 619.077 480 619.077t-180.821-14.923q-83.359-14.923-149.948-46.513v290.641q19.795 19.949 74.897 38.167 55.103 18.218 158.949 24.474ZM480 733.821Z"/></svg>