<svg xmlns="http://www.w3.org/2000/svg" height="40" viewBox="0 96 960 960" width="40"><path d="M153.846 856q-13.974 0-23.91-9.936T120 822.154v-125.59q36.436-15.846 59.192-47.961 22.757-32.116 22.757-72.603 0-40.487-22.757-72.936-22.756-32.449-59.192-47.628v-125.59q0-13.974 9.936-23.91t23.91-9.936h652.308q13.974 0 23.91 9.936t9.936 23.91v125.59q-36.436 15.179-59.192 47.628-22.757 32.449-22.757 72.936 0 40.487 22.757 72.603 22.756 32.115 59.192 47.961v125.59q0 13.974-9.936 23.91T806.154 856H153.846Zm0-33.846h652.308V718.051Q769 694.923 746.603 657.526 724.205 620.128 724.205 576q0-44.128 22.398-81.526 22.397-37.397 59.551-60.525V329.846H153.846v104.103q37.82 23.128 59.885 60.525 22.064 37.398 22.064 81.526 0 44.128-22.064 81.526-22.065 37.397-59.885 60.525v104.103Zm326.181-74.821q7.229 0 12.063-4.86 4.833-4.86 4.833-12.09 0-7.229-4.86-12.062-4.861-4.834-12.09-4.834t-12.063 4.861q-4.833 4.86-4.833 12.089 0 7.23 4.86 12.063 4.861 4.833 12.09 4.833Zm0-154.41q7.229 0 12.063-4.86 4.833-4.861 4.833-12.09t-4.86-12.063q-4.861-4.833-12.09-4.833t-12.063 4.86q-4.833 4.861-4.833 12.09t4.86 12.063q4.861 4.833 12.09 4.833Zm0-154.41q7.229 0 12.063-4.861 4.833-4.86 4.833-12.089 0-7.23-4.86-12.063-4.861-4.833-12.09-4.833t-12.063 4.86q-4.833 4.86-4.833 12.09 0 7.229 4.86 12.062 4.861 4.834 12.09 4.834ZM480 576Z"/></svg>