<svg xmlns="http://www.w3.org/2000/svg" height="40" viewBox="0 96 960 960" width="40"><path d="M479.965 993.333q-36.315 0-62.14-25.85Q392 941.633 392 905.333h176q0 36.667-25.86 62.333-25.861 25.667-62.175 25.667ZM748 625.667V497.666H620v-83.999h128v-128h84v128h128v83.999H832v128.001h-84ZM148 857.333v-83.999h83.667V492.333q0-86.861 50.833-154.264Q333.333 270.667 413.334 251v-28.667q0-27.555 19.578-46.111 19.578-18.555 47.166-18.555 27.589 0 47.089 18.555 19.499 18.556 19.499 46.111V251q19.667 4 42.667 15.333 23 11.334 35.667 22.667-34 33.667-52.166 76.219-18.167 42.552-18.167 90.781 0 86.333 48.166 143.666Q651 657 729.666 681v92.334H812v83.999H148Z"/></svg>