<svg xmlns="http://www.w3.org/2000/svg" height="40" viewBox="0 96 960 960" width="40"><path d="M728.51 988q-52.565 0-89.537-36.62Q602 914.76 602 862.446q0-6.411 1.334-14.945 1.333-8.534 4-15.362L318.192 665.333q-16.859 16.333-39.359 25.5-22.5 9.167-45.5 9.167-52.333 0-89.5-36.579-37.166-36.578-37.166-88.833 0-52.255 37.166-88.754 37.167-36.5 89.5-36.5 22.764 0 45.049 8.166Q300.667 465.667 318 482l289.334-165.535q-2.667-6.527-4-14.685Q602 293.622 602 286.667q0-52.222 36.796-88.778 36.796-36.555 89.361-36.555 51.843 0 88.843 36.578t37 88.833Q854 339 816.833 375.5q-37.166 36.5-89.5 36.5-23.902 0-45.618-7.167-21.715-7.167-38.574-23.5L354 542.806q2 7.018 3.333 16.123 1.333 9.106 1.333 15.899 0 6.792-1.333 14.07Q356 596.176 354 603.194l289.141 164.14Q660 753 681.167 745.167q21.166-7.833 46.166-7.833 52.334 0 89.5 36.578Q854 810.49 854 862.745 854 915 817.176 951.5 780.353 988 728.51 988Z"/></svg>